# xmcd
#
# Track frame offsets: 
#        150
#        19237
#        35350
#        48772
#        65657
#        82380
#        107610
#        124242
#        140722
#        158895
#        181272
#        196387
#        216622
#        233627
#        258875
#        295500
#
# Disc length: 4137 seconds
#
# Revision: 0
# Processed by: cddbd v1.5.1PL2 Copyright (c) Steve Scherf et al.
# Submitted via: ExactAudioCopy v0.95b4
#
DISCID=eb102710
DTITLE=Various Artist - Her Place - Collector's Edition
DYEAR=1900
DGENRE=Blues
TTITLE0=Holly Allen - Her Place
TTITLE1=Eddie Hinton - Everybody Needs Love
TTITLE2=Delbert McClinton - She Sure Got Away With My Heart
TTITLE3=Microwave Dave And The Nukes - Pay Bo Diddley
TTITLE4=Dan Penn - That's Me
TTITLE5=Widespread Panic - Fishwater
TTITLE6=Kozmic Mama - I Got Somethin'
TTITLE7=Jimmy Hall with Carla Russell - Night Time Is THe Right Time
TTITLE8=Mr.Wilson - Agatha Mae
TTITLE9=Walter Jr. And The Juice - Mama's Kitchen
TTITLE10=Jupiter Coyote - Ballad Of Lucy Edenfield
TTITLE11=Scott Boyer with Chuck Leavell and Butch Trucks - All My Friend
TTITLE11=s
TTITLE12=Oteil Burbridge - A 2-Fay
TTITLE13=Ken and Harry Watters - The Girls Back Home
TTITLE14=Jerry Joseph - Henry
TTITLE15=Carla Russell - Won't You Carry Me Jesus ('Til I Make It Back
TTITLE15=Home)
EXTD=
EXTT0=
EXTT1=
EXTT2=
EXTT3=
EXTT4=
EXTT5=
EXTT6=
EXTT7=
EXTT8=
EXTT9=
EXTT10=
EXTT11=
EXTT12=
EXTT13=
EXTT14=
EXTT15=
PLAYORDER=
